0
SECTION
2
HEADER
9
$INSUNITS
70
4
9
$ACADVER
1
AC1014
9
$HANDSEED
5
FFFF
0
ENDSEC
0
SECTION
2
TABLES
0
TABLE
2
VPORT
5
8
100
AcDbSymbolTable
0
ENDTAB
0
TABLE
2
LTYPE
5
5
100
AcDbSymbolTable
0
LTYPE
5
14
100
AcDbSymbolTableRecord
100
AcDbLinetypeTableRecord
2
BYBLOCK
70
0
0
LTYPE
5
15
100
AcDbSymbolTableRecord
100
AcDbLinetypeTableRecord
2
BYLAYER
70
0
0
LTYPE
5
16
100
AcDbSymbolTableRecord
100
AcDbLinetypeTableRecord
2
DASHED
70
0
3
Dashed __ __ __ __ __ __ __ __ __ __ __ __ __ _
72
65
73
2
40
0.75
49
0.5
74
0
49
-0.25
74
0
0
ENDTAB
0
TABLE
2
LAYER
5
2
100
AcDbSymbolTable
70
2
0
LAYER
5
50
100
AcDbSymbolTableRecord
100
AcDbLayerTableRecord
2
0
70
0
62
7
6
CONTINUOUS
0
ENDTAB
0
TABLE
2
STYLE
5
3
100
AcDbSymbolTable
70
1
0
STYLE
5
11
100
AcDbSymbolTableRecord
100
AcDbTextStyleTableRecord
2
STANDARD
70
0
0
ENDTAB
0
TABLE
2
VIEW
5
6
100
AcDbSymbolTable
70
0
0
ENDTAB
0
TABLE
2
UCS
5
7
100
AcDbSymbolTable
70
0
0
ENDTAB
0
TABLE
2
APPID
5
9
100
AcDbSymbolTable
70
2
0
APPID
5
12
100
AcDbSymbolTableRecord
100
AcDbRegAppTableRecord
2
ACAD
70
0
0
ENDTAB
0
TABLE
2
DIMSTYLE
5
A
100
AcDbSymbolTable
70
1
0
ENDTAB
0
TABLE
2
BLOCK_RECORD
5
1
100
AcDbSymbolTable
70
1
0
BLOCK_RECORD
5
1F
100
AcDbSymbolTableRecord
100
AcDbBlockTableRecord
2
*MODEL_SPACE
0
BLOCK_RECORD
5
1B
100
AcDbSymbolTableRecord
100
AcDbBlockTableRecord
2
*PAPER_SPACE
0
ENDTAB
0
ENDSEC
0
SECTION
2
BLOCKS
0
BLOCK
5
20
100
AcDbEntity
100
AcDbBlockBegin
2
*MODEL_SPACE
0
ENDBLK
5
21
100
AcDbEntity
100
AcDbBlockEnd
0
BLOCK
5
1C
100
AcDbEntity
100
AcDbBlockBegin
2
*PAPER_SPACE
0
ENDBLK
5
1D
100
AcDbEntity
100
AcDbBlockEnd
0
ENDSEC
0
SECTION
2
ENTITIES
0
SPLINE
5
100
100
AcDbEntity
8
0
100
AcDbSpline
70
6
71
5
72
201
73
195
74
0
42
0.000000001
43
0.0000000001
44
0.0000000001
40
0
40
0
40
0
40
0
40
0
40
0
40
0.005263157894736842
40
0.010526315789473684
40
0.015789473684210527
40
0.021052631578947368
40
0.026315789473684209
40
0.031578947368421054
40
0.036842105263157898
40
0.042105263157894743
40
0.047368421052631587
40
0.052631578947368432
40
0.057894736842105277
40
0.063157894736842121
40
0.068421052631578966
40
0.07368421052631581
40
0.078947368421052655
40
0.0842105263157895
40
0.089473684210526344
40
0.094736842105263189
40
0.10000000000000003
40
0.10526315789473688
40
0.11052631578947372
40
0.11578947368421057
40
0.12105263157894741
40
0.12631578947368424
40
0.13157894736842107
40
0.1368421052631579
40
0.14210526315789473
40
0.14736842105263157
40
0.1526315789473684
40
0.15789473684210523
40
0.16315789473684206
40
0.16842105263157889
40
0.17368421052631572
40
0.17894736842105255
40
0.18421052631578938
40
0.18947368421052621
40
0.19473684210526304
40
0.19999999999999987
40
0.2052631578947367
40
0.21052631578947353
40
0.21578947368421036
40
0.2210526315789472
40
0.22631578947368403
40
0.23157894736842086
40
0.23684210526315769
40
0.24210526315789452
40
0.24736842105263135
40
0.25263157894736821
40
0.25789473684210507
40
0.26315789473684192
40
0.26842105263157878
40
0.27368421052631564
40
0.2789473684210525
40
0.28421052631578936
40
0.28947368421052622
40
0.29473684210526307
40
0.29999999999999993
40
0.30526315789473679
40
0.31052631578947365
40
0.31578947368421051
40
0.32105263157894737
40
0.32631578947368423
40
0.33157894736842108
40
0.33684210526315794
40
0.3421052631578948
40
0.34736842105263166
40
0.35263157894736852
40
0.35789473684210538
40
0.36315789473684223
40
0.36842105263157909
40
0.37368421052631595
40
0.37894736842105281
40
0.38421052631578967
40
0.38947368421052653
40
0.39473684210526339
40
0.40000000000000024
40
0.4052631578947371
40
0.41052631578947396
40
0.41578947368421082
40
0.42105263157894768
40
0.42631578947368454
40
0.4315789473684214
40
0.43684210526315825
40
0.44210526315789511
40
0.44736842105263197
40
0.45263157894736883
40
0.45789473684210569
40
0.46315789473684255
40
0.4684210526315794
40
0.47368421052631626
40
0.47894736842105312
40
0.48421052631578998
40
0.48947368421052684
40
0.4947368421052637
40
0.50000000000000056
40
0.50526315789473741
40
0.51052631578947427
40
0.51578947368421113
40
0.52105263157894799
40
0.52631578947368485
40
0.53157894736842171
40
0.53684210526315856
40
0.54210526315789542
40
0.54736842105263228
40
0.55263157894736914
40
0.557894736842106
40
0.56315789473684286
40
0.56842105263157972
40
0.57368421052631657
40
0.57894736842105343
40
0.58421052631579029
40
0.58947368421052715
40
0.59473684210526401
40
0.60000000000000087
40
0.60526315789473772
40
0.61052631578947458
40
0.61578947368421144
40
0.6210526315789483
40
0.62631578947368516
40
0.63157894736842202
40
0.63684210526315888
40
0.64210526315789573
40
0.64736842105263259
40
0.65263157894736945
40
0.65789473684210631
40
0.66315789473684317
40
0.66842105263158003
40
0.67368421052631688
40
0.67894736842105374
40
0.6842105263157906
40
0.68947368421052746
40
0.69473684210526432
40
0.70000000000000118
40
0.70526315789473804
40
0.71052631578947489
40
0.71578947368421175
40
0.72105263157894861
40
0.72631578947368547
40
0.73157894736842233
40
0.73684210526315919
40
0.74210526315789604
40
0.7473684210526329
40
0.75263157894736976
40
0.75789473684210662
40
0.76315789473684348
40
0.76842105263158034
40
0.7736842105263172
40
0.77894736842105405
40
0.78421052631579091
40
0.78947368421052777
40
0.79473684210526463
40
0.80000000000000149
40
0.80526315789473835
40
0.8105263157894752
40
0.81578947368421206
40
0.82105263157894892
40
0.82631578947368578
40
0.83157894736842264
40
0.8368421052631595
40
0.84210526315789636
40
0.84736842105263321
40
0.85263157894737007
40
0.85789473684210693
40
0.86315789473684379
40
0.86842105263158065
40
0.87368421052631751
40
0.87894736842105436
40
0.88421052631579122
40
0.88947368421052808
40
0.89473684210526494
40
0.9000000000000018
40
0.90526315789473866
40
0.91052631578947552
40
0.91578947368421237
40
0.92105263157894923
40
0.92631578947368609
40
0.93157894736842295
40
0.93684210526315981
40
0.94210526315789667
40
0.94736842105263352
40
0.95263157894737038
40
0.95789473684210724
40
0.9631578947368441
40
0.96842105263158096
40
0.97368421052631782
40
0.97894736842105468
40
0.98421052631579153
40
0.98947368421052839
40
0.99473684210526525
40
1
40
1
40
1
40
1
40
1
40
1
41
1
41
1
41
1
41
1
41
1
41
1
41
1
41
1
41
1
41
1
41
1
41
1
41
1
41
1
41
1
41
1
41
1
41
1
41
1
41
1
41
1
41
1
41
1
41
1
41
1
41
1
41
1
41
1
41
1
41
1
41
1
41
1
41
1
41
1
41
1
41
1
41
1
41
1
41
1
41
1
41
1
41
1
41
1
41
1
41
1
41
1
41
1
41
1
41
1
41
1
41
1
41
1
41
1
41
1
41
1
41
1
41
1
41
1
41
1
41
1
41
1
41
1
41
1
41
1
41
1
41
1
41
1
41
1
41
1
41
1
41
1
41
1
41
1
41
1
41
1
41
1
41
1
41
1
41
1
41
1
41
1
41
1
41
1
41
1
41
1
41
1
41
1
41
1
41
1
41
1
41
1
41
1
41
1
41
1
41
1
41
1
41
1
41
1
41
1
41
1
41
1
41
1
41
1
41
1
41
1
41
1
41
1
41
1
41
1
41
1
41
1
41
1
41
1
41
1
41
1
41
1
41
1
41
1
41
1
41
1
41
1
41
1
41
1
41
1
41
1
41
1
41
1
41
1
41
1
41
1
41
1
41
1
41
1
41
1
41
1
41
1
41
1
41
1
41
1
41
1
41
1
41
1
41
1
41
1
41
1
41
1
41
1
41
1
41
1
41
1
41
1
41
1
41
1
41
1
41
1
41
1
41
1
41
1
41
1
41
1
41
1
41
1
41
1
41
1
41
1
41
1
41
1
41
1
41
1
41
1
41
1
41
1
41
1
41
1
41
1
41
1
41
1
41
1
41
1
41
1
41
1
41
1
41
1
41
1
41
1
41
1
41
1
41
1
41
1
41
1
41
1
41
1
41
1
41
1
41
1
10
-8.369038272011835
20
-0.35911042692653439
30
0
10
-8.3929993850929794
20
0.12508227130074076
30
0
10
-8.258813740666529
20
1.1316306169100143
30
0
10
-7.5123218766016553
20
2.7443168867326104
30
0
10
-5.7276167878206756
20
4.975629785716607
30
0
10
-3.291601140749163
20
7.5451428129950493
30
0
10
-0.86728606867655367
20
9.8923987467469168
30
0
10
1.8672081941155694
20
12.208380919554209
30
0
10
4.997160226935117
20
14.565450328199177
30
0
10
8.1460499784867544
20
16.824691889190898
30
0
10
10.968665584975676
20
18.842251801130715
30
0
10
13.616349531334329
20
20.662385916487857
30
0
10
16.626521138986764
20
22.476439130983749
30
0
10
20.425104142735645
20
24.423036077266151
30
0
10
25.053909712572565
20
26.481630672081472
30
0
10
30.337649661834622
20
28.554034310002869
30
0
10
35.993002352608038
20
30.51899957228305
30
0
10
41.777620210719277
20
32.309087663279826
30
0
10
47.532648346244777
20
33.917774676510987
30
0
10
53.178863926670168
20
35.372614227551267
30
0
10
58.723807744930888
20
36.719922178385509
30
0
10
64.271533951404081
20
38.002097758209963
30
0
10
70.004979026138287
20
39.247629424874688
30
0
10
76.128200191856592
20
40.474209417276811
30
0
10
82.819843021847319
20
41.688708091590996
30
0
10
90.180008933546034
20
42.888362781556431
30
0
10
98.18568857742261
20
44.061584794826274
30
0
10
106.72824886076441
20
45.191012571062437
30
0
10
115.6456351607136
20
46.256324956227282
30
0
10
124.75661712068595
20
47.237155506268131
30
0
10
133.89401046459227
20
48.115950900737339
30
0
10
142.93869653261828
20
48.880883452749764
30
0
10
151.85231642801475
20
49.528658782820315
30
0
10
160.65343045105453
20
50.062536487279672
30
0
10
169.39447861154508
20
50.49042759300729
30
0
10
178.13894016249122
20
50.822990643767866
30
0
10
186.93730532596433
20
51.071669630152982
30
0
10
195.80614666901414
20
51.246896166026943
30
0
10
204.69919486792108
20
51.355863965803401
30
0
10
213.52220696762146
20
51.402644629133675
30
0
10
222.16424997720844
20
51.389167689223441
30
0
10
230.52290087390983
20
51.315903059758725
30
0
10
238.5335472108689
20
51.182698732537126
30
0
10
246.19329546154285
20
50.989478602209616
30
0
10
253.59643274009383
20
50.737185726994412
30
0
10
260.91720982943036
20
50.427661388284115
30
0
10
268.36730544758461
20
50.063017783811638
30
0
10
276.16052762303576
20
49.645155263474294
30
0
10
284.47611410612785
20
49.175251188550703
30
0
10
293.41881459315641
20
48.65318552797433
30
0
10
302.99203636726412
20
48.077224367508833
30
0
10
313.12512470750175
20
47.444773316091457
30
0
10
323.69238453714621
20
46.752967286732897
30
0
10
334.53535623139879
20
45.99932590386679
30
0
10
345.48362361585544
20
45.182377250884713
30
0
10
356.3764191598022
20
44.30230406099394
30
0
10
367.08348627520598
20
43.361560080601507
30
0
10
377.52735653458393
20
42.365555371447527
30
0
10
387.67534028260661
20
41.321802279778623
30
0
10
397.53008591954682
20
40.238989525695686
30
0
10
407.12064247681735
20
39.126078457000375
30
0
10
416.49336920347884
20
37.991399673451056
30
0
10
425.70278948836244
20
36.841727111367739
30
0
10
434.80276627810946
20
35.681414189328606
30
0
10
443.83675060065485
20
34.511362219110772
30
0
10
452.83825320227726
20
33.329819453382846
30
0
10
461.83259584947967
20
32.13341407865849
30
0
10
470.83817880685956
20
30.918088692722137
30
0
10
479.86801272172431
20
29.68010997677866
30
0
10
488.93099190093716
20
28.416967359640239
30
0
10
498.03362924988136
20
27.128511851375265
30
0
10
507.18034534006995
20
25.817308171951186
30
0
10
516.37165314211938
20
24.487817571442886
30
0
10
525.60280566169502
20
23.145856533163819
30
0
10
534.86233599529237
20
21.797951487603555
30
0
10
544.13045803612431
20
20.45072187156795
30
0
10
553.37795835730265
20
19.110289355542154
30
0
10
562.56373876749876
20
17.781575514091934
30
0
10
571.64223587357174
20
16.468451995911334
30
0
10
580.57332706862337
20
15.174087841245223
30
0
10
589.33095523641487
20
13.901227062741446
30
0
10
597.91325208424712
20
12.652499564665828
30
0
10
606.34979499397491
20
11.430708021746172
30
0
10
614.71554810821601
20
10.239148741313688
30
0
10
623.12237974813775
20
9.0818341915084826
30
0
10
631.67691695706856
20
7.9635811496594391
30
0
10
640.44750882430878
20
6.8901238727648542
30
0
10
649.42531976176952
20
5.8682327778188732
30
0
10
658.49294770394954
20
4.9057954103927379
30
0
10
667.3777589288004
20
4.0119989312418678
30
0
10
675.64829796376387
20
3.1972095047238565
30
0
10
682.8816493251818
20
2.4716051862850725
30
0
10
688.80968099819665
20
1.8439881491875836
30
0
10
693.46539839993841
20
1.3205342990920679
30
0
10
697.3485127902627
20
0.90355243653330586
30
0
10
701.52384628339473
20
0.59026126914858712
30
0
10
707.04262467801482
20
0.37056994000146365
30
0
10
714.50277783795002
20
0.22559577428460503
30
0
10
723.39578277146211
20
0.12450109880182197
30
0
10
732.20804038496112
20
0.027828802683112698
30
0
10
739.1019778306611
20
-0.10410843322385915
30
0
10
742.44988244412309
20
-0.30407784364608914
30
0
10
741.38780471941254
20
-0.5907279154681413
30
0
10
736.46667981367568
20
-0.96019438246391686
30
0
10
729.14153845424596
20
-1.3914894547478209
30
0
10
721.12340629205141
20
-1.8538410437440276
30
0
10
713.70843263654024
20
-2.3135279327812426
30
0
10
707.33472145218661
20
-2.7403366493239645
30
0
10
701.91648184212522
20
-3.1115802449107397
30
0
10
697.04307413196091
20
-3.4167938771275725
30
0
10
692.22439823368723
20
-3.6617041040622049
30
0
10
687.13500326699534
20
-3.8737172985395523
30
0
10
681.60745631963675
20
-4.0906491676286816
30
0
10
675.59277120693787
20
-4.3477882992514125
30
0
10
669.13275441440237
20
-4.6652452647745761
30
0
10
662.32781133342644
20
-5.0360132712437098
30
0
10
655.31975082679787
20
-5.4359406607136931
30
0
10
648.27322234419489
20
-5.832990565952815
30
0
10
641.35758027556267
20
-6.196395566644858
30
0
10
634.72890014831239
20
-6.5067294274168752
30
0
10
628.51096530730717
20
-6.7629412660118549
30
0
10
622.77257649228864
20
-6.9760063908971599
30
0
10
617.50440864977986
20
-7.1644683141298717
30
0
10
612.59807885071712
20
-7.3492964371818168
30
0
10
607.81896161732698
20
-7.5488936277624594
30
0
10
602.87747000799436
20
-7.777671924567815
30
0
10
597.50001231092699
20
-8.0451164384747837
30
0
10
591.51314561283834
20
-8.3542762288218047
30
0
10
584.87876657615868
20
-8.701791098287071
30
0
10
577.64089330961929
20
-9.080492532624838
30
0
10
569.89102281412329
20
-9.4815083848475989
30
0
10
561.7287176553084
20
-9.8964063692182389
30
0
10
553.21775627121565
20
-10.319707002843955
30
0
10
544.36780113234204
20
-10.749831212729458
30
0
10
535.15288997796858
20
-11.187874428201388
30
0
10
525.52074359251287
20
-11.636918332165667
30
0
10
515.4056575186554
20
-12.10113533044405
30
0
10
504.74017406109863
20
-12.584958245099884
30
0
10
493.46653513374036
20
-13.092277614459359
30
0
10
481.55011772943567
20
-13.62548591033789
30
0
10
468.98213667854299
20
-14.185326653135482
30
0
10
455.77704995325371
20
-14.771139024681064
30
0
10
441.97164269053593
20
-15.380977129129574
30
0
10
427.62342324707419
20
-16.011781098036774
30
0
10
412.80930618057778
20
-16.65952571676835
30
0
10
397.62420445025191
20
-17.319378545532793
30
0
10
382.17959742064033
20
-17.985853743317083
30
0
10
366.60226821370952
20
-18.652967700620245
30
0
10
351.03260568563377
20
-19.314393561674784
30
0
10
335.62404275430566
20
-19.963616733930266
30
0
10
320.53561720854452
20
-20.594085900058985
30
0
10
305.92249037272171
20
-21.199362672329972
30
0
10
291.9271250928021
20
-21.773271925067977
30
0
10
278.6702391198906
20
-22.310051413331095
30
0
10
266.24172819728352
20
-22.804502871325418
30
0
10
254.69188208499565
20
-23.25214003005954
30
0
10
244.02180405873307
20
-23.649344018236306
30
0
10
234.17571092164752
20
-23.993501937539158
30
0
10
225.02866926606853
20
-24.283186296605528
30
0
10
216.38860996796069
20
-24.518207219651703
30
0
10
208.03086075329725
20
-24.699377386933516
30
0
10
199.72590684395075
20
-24.828334217076744
30
0
10
191.27028879857892
20
-24.907341205822455
30
0
10
182.51514889348647
20
-24.939094217387897
30
0
10
173.39821398053201
20
-24.926535468095082
30
0
10
163.96724264756887
20
-24.872636098340621
30
0
10
154.34443517188961
20
-24.779954790671951
30
0
10
144.69648268585698
20
-24.650211047928945
30
0
10
135.20312138857079
20
-24.483869398735557
30
0
10
126.02482675063256
20
-24.27968074866277
30
0
10
117.27437369511607
20
-24.034330453952428
30
0
10
108.97808034967485
20
-23.741821133903471
30
0
10
101.07558812315887
20
-23.393833237328629
30
0
10
93.458877722584958
20
-22.981079508257114
30
0
10
86.000446182480417
20
-22.494383959432646
30
0
10
78.586394204361369
20
-21.925888043156753
30
0
10
71.14627305394346
20
-21.270168225898697
30
0
10
63.687390954774813
20
-20.525484936533612
30
0
10
56.274349071637502
20
-19.693312119454855
30
0
10
49.004823057535994
20
-18.777721186017402
30
0
10
41.985826101841113
20
-17.78484143686606
30
0
10
35.311748790427075
20
-16.722234513308081
30
0
10
29.036543538988646
20
-15.598448832457819
30
0
10
23.179857777775116
20
-14.421504221273342
30
0
10
17.749606120440632
20
-13.196634311452399
30
0
10
12.753478701005314
20
-11.924845198213955
30
0
10
8.2282096167724479
20
-10.599815760909799
30
0
10
4.2179289803194546
20
-9.2096383104247241
30
0
10
0.72921052491615046
20
-7.7391428464049783
30
0
10
-2.3617838038094936
20
-6.179537781593921
30
0
10
-5.229890953348816
20
-4.5144725779110813
30
0
10
-7.2225680908863641
20
-3.0427452998841398
30
0
10
-8.1150470621797925
20
-1.773525572453275
30
0
10
-8.3450771589307067
20
-0.84330312515361661
30
0
10
-8.369038272011835
20
-0.35911042692653439
30
0
0
ENDSEC
0
SECTION
2
OBJECTS
0
DICTIONARY
5
C
100
AcDbDictionary
3
ACAD_GROUP
350
D
3
ACAD_MLINESTYLE
350
17
0
DICTIONARY
5
D
100
AcDbDictionary
0
DICTIONARY
5
1A
330
C
100
AcDbDictionary
0
DICTIONARY
5
17
100
AcDbDictionary
0
ENDSEC
0
EOF
