<?xml version="1.0" encoding="UTF-8"?>
<svg xmlns="http://www.w3.org/2000/svg"
     viewBox="0 0 750 40">
  <path d="
    M 750.000 20.000
    L 712.500 23.675
    L 675.000 26.675
    L 600.000 31.250
    L 525.000 34.850
    L 450.000 37.250
    L 375.000 38.375
    L 300.000 38.000
    L 225.000 35.375
    L 187.500 33.350
    L 150.000 31.250
    L 112.500 27.875
    L 75.000 24.650
    L 56.250 23.000
    L 37.500 21.500
    L 18.750 20.525
    L 0.000 20.000
    L 18.750 19.550
    L 37.500 18.875
    L 56.250 18.275
    L 75.000 17.750
    L 112.500 17.000
    L 150.000 16.550
    L 187.500 16.325
    L 225.000 16.250
    L 300.000 16.625
    L 375.000 17.375
    L 450.000 18.350
    L 525.000 19.250
    L 600.000 19.775
    L 675.000 19.925
    L 712.500 20.000
    L 750.000 20.000
    Z"
    fill="none" stroke="black" stroke-width="0.5"/>
</svg>
